{"title":"Final Fantasy VII Advent Children Complete 2005 [English] BRRip","uid":6957369,"size":2014115156,"categoryP":"video","categoryS":"movies","magnet":"?xt=urn:btih:f98de1d35c4183beed3f4c4c7e53dddec5e16494&amp;dn=Final+Fantasy+VII+Advent+Children+Complete+2005+%5BEnglish%5D+BRRip+&amp;tr=udp%3A%2F%2Ftracker.openbittorrent.com%3A80&amp;tr=udp%3A%2F%2Fopen.demonii.com%3A1337&amp;tr=udp%3A%2F%2Ftracker.coppersurfer.tk%3A6969&amp;tr=udp%3A%2F%2Fexodus.desync.com%3A6969","seeders":0,"leechers":1,"uploader":"DrMonk892","files":1,"time":1326637291,"description":"  \n \n\n Final Fantasy VII Advent Children Complete 2005 [English] BRRip H264 AAC-MS.mp4\n      Format : MPEG-4\n      Format profile : Base Media\n      Codec ID : isom\n      File size : 1.88 GiB\n      Duration : 2h 6mn\n      Overall bit rate : 2 124 Kbps\n     \n   Video #1\n      Format : AVC\n      Format/Info : Advanced Video Codec\n      Format profile : &lt;a class=&quot;__cf_email__&quot; href=&quot;/cdn-cgi/l/email-protection&quot; data-cfemail=&quot;eda5848a85ada1d9c3dc&quot;&gt;[email&amp;#160;protected]&lt;/a&gt;&lt;script cf-hash='f9e31' type=&quot;text/javascript&quot;&gt;\n/* &lt;![CDATA[ */!function(){try{var t=&quot;currentScript&quot;in document?document.currentScript:function(){for(var t=document.getElementsByTagName(&quot;script&quot;),e=t.length;e--;)if(t[e].getAttribute(&quot;cf-hash&quot;))return t[e]}();if(t&amp;&amp;t.previousSibling){var e,r,n,i,c=t.previousSibling,a=c.getAttribute(&quot;data-cfemail&quot;);if(a){for(e=&quot;&quot;,r=parseInt(a.substr(0,2),16),n=2;a.length-n;n+=2)i=parseInt(a.substr(n,2),16)^r,e+=String.fromCharCode(i);e=document.createTextNode(e),c.parentNode.replaceChild(e,c)}}}catch(u){}}();/* ]]&gt; */&lt;/script&gt;\n      Format settings, CABAC : Yes\n      Format settings, ReFrames : 3 frames\n      Codec ID : avc1\n      Codec ID/Info : Advanced Video Coding\n      Duration : 2h 6mn\n      Bit rate mode : Variable\n      Bit rate : 1 800 Kbps\n      Maximum bit rate : 16.4 Mbps\n      Width : 1 280 pixels\n      Height : 720 pixels\n      Display aspect ratio : 16/9\n      Frame rate mode : Constant\n      Frame rate : 23.976 fps\n      Resolution : 24 bits\n      Colorimetry : 4:2:0\n      Scan type : Progressive\n      Bits/(Pixel*Frame) : 0.081\n      Stream size : 1.59 GiB (85%)\n      Writing library : x264 core 98 r1649 c54c47d\n      \n   Audio #2\n      Format : AAC\n      Format/Info : Advanced Audio Codec\n      Format version : Version 4\n      Format profile : LC\n      Format settings, SBR : No\n      Codec ID : 40\n      Duration : 2h 6mn\n      Bit rate mode : Variable\n      Bit rate : 321 Kbps\n      Maximum bit rate : 409 Kbps\n      Channel(s) : 6 channels\n      Channel positions : Front: L C R, Rear: L R, LFE\n      Sampling rate : 48.0 KHz\n      Resolution : 16 bits\n      Stream size : 290 MiB (15%)\n      Language : English","torrent":{"xt":"urn:btih:f98de1d35c4183beed3f4c4c7e53dddec5e16494","amp;dn":"Final+Fantasy+VII+Advent+Children+Complete+2005+%5BEnglish%5D+BRRip+","amp;tr":["udp%3A%2F%2Ftracker.openbittorrent.com%3A80","udp%3A%2F%2Fopen.demonii.com%3A1337","udp%3A%2F%2Ftracker.coppersurfer.tk%3A6969","udp%3A%2F%2Fexodus.desync.com%3A6969"],"infoHash":"f98de1d35c4183beed3f4c4c7e53dddec5e16494","infoHashBuffer":{"type":"Buffer","data":[249,141,225,211,92,65,131,190,237,63,76,76,126,83,221,222,197,225,100,148]},"announce":[],"urlList":[]}}